<?xml version="1.0" standalone="no"?>
<!DOCTYPE svg PUBLIC "-//W3C//DTD SVG 20010904//EN"
 "http://www.w3.org/TR/2001/REC-SVG-20010904/DTD/svg10.dtd">
<svg version="1.0" xmlns="http://www.w3.org/2000/svg"
 width="614.000000pt" height="614.000000pt" viewBox="0 0 614.000000 614.000000"
 preserveAspectRatio="xMidYMid meet">
<metadata>
Created by potrace 1.14, written by Peter Selinger 2001-2017
</metadata>
<g transform="translate(0.000000,614.000000) scale(0.100000,-0.100000)"
fill="#000000" stroke="none">
<path d="M4336 5489 c-51 -25 -65 -40 -113 -129 -8 -14 -22 -37 -31 -52 -9
-14 -32 -53 -51 -85 -36 -62 -122 -195 -131 -203 -3 -3 -18 -23 -35 -45 -45
-60 -164 -177 -218 -214 -187 -127 -401 -149 -687 -73 -87 24 -153 46 -220 75
-19 8 -79 34 -133 57 -54 22 -149 65 -210 94 -62 30 -161 77 -222 106 -60 29
-141 67 -180 85 -38 18 -124 58 -190 90 -66 32 -167 80 -225 107 -58 28 -139
67 -180 86 -119 58 -206 48 -259 -27 -10 -14 -75 -156 -146 -316 -259 -589
-318 -721 -342 -775 -52 -115 -59 -160 -33 -212 15 -27 61 -78 71 -78 5 0 66
-27 136 -61 70 -33 157 -74 193 -90 36 -16 72 -34 80 -39 8 -6 26 -15 40 -21
41 -17 256 -119 530 -251 172 -83 239 -114 340 -157 41 -18 84 -36 95 -41 162
-70 539 -189 680 -215 17 -3 71 -12 120 -21 230 -42 576 -51 730 -20 11 2 41
7 68 10 54 8 265 62 312 81 11 4 53 21 93 37 175 68 400 206 565 346 81 68
291 286 363 377 119 149 267 361 332 476 10 19 48 81 83 138 59 97 64 109 64
161 -1 77 -24 105 -148 181 -56 34 -124 77 -152 94 -27 18 -188 117 -357 221
-169 104 -327 201 -350 216 -24 15 -52 32 -63 38 -11 6 -39 21 -62 35 -57 34
-108 38 -157 14z"/>
<path d="M2509 3036 c-2 -2 -31 -6 -64 -9 -90 -9 -227 -35 -293 -55 -18 -6
-36 -11 -40 -11 -9 -1 -131 -40 -157 -50 -75 -30 -343 -167 -355 -182 -3 -3
-14 -11 -25 -17 -11 -5 -51 -33 -89 -61 -212 -157 -437 -389 -606 -626 -36
-49 -67 -92 -71 -95 -3 -3 -45 -68 -92 -145 -48 -77 -90 -144 -95 -150 -4 -5
-11 -17 -15 -25 -4 -8 -18 -33 -32 -55 -53 -84 -65 -115 -65 -161 0 -90 17
-105 330 -293 8 -5 134 -83 280 -173 145 -90 272 -167 282 -173 73 -42 224
-139 226 -146 2 -5 46 -9 97 -9 l94 0 35 44 c20 23 36 46 36 49 0 14 191 320
242 388 105 139 243 260 339 299 19 7 39 16 44 20 8 6 27 12 75 25 92 24 257
23 360 -2 14 -3 34 -7 45 -9 31 -4 174 -50 235 -74 30 -12 60 -23 65 -25 31
-7 245 -104 525 -238 184 -88 328 -156 425 -202 143 -67 324 -154 393 -187
100 -48 179 -42 234 19 9 10 53 102 98 203 45 102 89 203 99 225 10 22 60 135
111 250 51 116 101 230 113 255 137 304 141 320 105 389 -22 42 -63 74 -126
101 -49 21 -124 56 -270 126 -84 41 -155 74 -157 74 -2 0 -72 33 -157 74 -483
234 -590 284 -703 330 -49 21 -103 43 -120 51 -76 35 -319 115 -470 155 -101
27 -91 25 -215 49 -95 18 -129 23 -240 38 -43 5 -426 13 -431 9z"/>
</g>
</svg>
